# AST/ASF file generated using VICON BodyLanguage
# -----------------------------------------------
:version 1.10
:name VICON
:units
  mass 1.0
  length 0.45
  angle deg
:documentation
   .ast/.asf automatically generated from VICON data using
   VICON BodyBuilder and BodyLanguage model FoxedUp or BRILLIANT.MOD
:root
   order TX TY TZ RX RY RZ
   axis XYZ
   position 0 0 0  
   orientation 0 0 0 
:bonedata
  begin
     id 1 
     name lhipjoint
     direction 0.611804 -0.747784 0.257906 
     length 2.29243 
     axis 0 0 0  XYZ
  end
  begin
     id 2 
     name lfemur
     direction 0.34202 -0.939693 0  
     length 7.31159  
     axis 0 0 20  XYZ
    dof rx ry rz
    limits (-160.0 20.0)
           (-70.0 70.0)
           (-60.0 70.0)
  end
  begin
     id 3 
     name ltibia
     direction 0.34202 -0.939693 0   
     length 7.33391   
     axis 0 0 20   XYZ
    dof rx
    limits (-10.0 170.0)
  end
  begin
     id 4 
     name lfoot
     direction 0.122263 -0.335914 0.933924   
     length 1.76083   
     axis -90 7.62852e-016 20   XYZ
    dof rx rz
    limits (-45.0 90.0)
           (-70.0 20.0)
  end
  begin
     id 5 
     name ltoes
     direction 1.53533e-011 -4.2177e-011 1   
     length 0.879206   
     axis -90 7.62852e-016 20   XYZ
    dof rx
    limits (-90.0 20.0)
  end
  begin
     id 6 
     name rhipjoint
     direction -0.646469 -0.721248 0.248754   
     length 2.37677  
     axis 0 0 0  XYZ 
  end
  begin
     id 7 
     name rfemur
     direction -0.34202 -0.939693 0   
     length 7.18623   
     axis 0 0 -20   XYZ
    dof rx ry rz
    limits (-160.0 20.0)
           (-70.0 70.0)
           (-70.0 60.0)
  end
  begin
     id 8 
     name rtibia
     direction -0.34202 -0.939693 0   
     length 7.36567   
     axis 0 0 -20   XYZ
    dof rx
    limits (-10.0 170.0)
 end
 begin
     id 9 
     name rfoot
     direction -0.126681 -0.348054 0.928876   
     length 1.71902  
     axis -90 -7.62852e-016 -20   XYZ
    dof rx rz
    limits (-45.0 90.0)
           (-20.0 70.0)
  end
  begin
     id 10 
     name rtoes
     direction -1.53551e-011 -4.21898e-011 1   
     length 0.857792   
     axis -90 -7.62852e-016 -20   XYZ
    dof rx
    limits (-90.0 20.0)
  end
  begin
     id 11 
     name lowerback
     direction 0.0106509 0.999778 0.0181844   
     length 2.07668   
     axis 0 0 0   XYZ
    dof rx ry rz
    limits (-20.0 45.0)
           (-30.0 30.0)
           (-30.0 30.0)
  end
  begin
     id 12 
     name upperback
     direction -0.00456018 0.999989 -0.000590935   
     length 2.08011   
     axis 0 0 0   XYZ
    dof rx ry rz
    limits (-20.0 45.0)
           (-30.0 30.0)
           (-30.0 30.0)
  end
  begin
     id 13 
     name thorax
     direction -0.00910382 0.999916 -0.00923765   
     length 2.07397   
     axis 0 0 0   XYZ
    dof rx ry rz
    limits (-20.0 45.0)
           (-30.0 30.0)
           (-30.0 30.0)
  end
  begin
     id 14 
     name lowerneck
     direction 0.00171967 0.99778 0.0665733   
     length 1.67556   
     axis 0 0 0   XYZ
    dof rx ry rz
    limits (-20.0 45.0)
           (-30.0 30.0)
           (-30.0 30.0)
  end
  begin
     id 15 
     name upperneck
     direction -0.0143166 0.991302 -0.130828   
     length 1.68462   
     axis 0 0 0   XYZ
    dof rx ry rz
    limits (-20.0 45.0)
           (-30.0 30.0)
           (-30.0 30.0)
  end
  begin
     id 16
     name head
     direction -0.00606378 0.998665 -0.0512995  
     length 1.69269  
     axis 0 0 0   XYZ
    dof rx ry rz
    limits (-20.0 45.0)
           (-30.0 30.0)
           (-30.0 30.0)
  end
  begin
     id 17 
     name lclavicle
     direction 0.9638 0.179341 0.197297  
     length 4.12888  
     axis 0 0 0   XYZ
    dof ry rz
    limits (-20.0 10.0)
           (0.0 20.0)
  end
  begin
     id 18 
     name lhumerus
     direction 1 -4.48972e-011 -2.47351e-027   
     length 5.01834   
     axis -180 -30 -90   XYZ
    dof rx ry rz
    limits (-60.0 90.0)
           (-90.0 90.0)
           (-90.0 90.0)
  end
  begin
     id 19
     name lradius
     direction 1 -4.48965e-011 1.51591e-026   
     length 3.4869   
     axis -180 -30 -90   XYZ
    dof rx
    limits (-10.0 170.0)
  end
  begin
     id 20
     name lwrist
     direction 1 -4.48957e-011 2.70032e-026   
     length 1.74345   
     axis -1.81515e-014 90 90   XYZ
    dof ry
    limits (-180.0 0.0)
 end
  begin
     id 21 
     name lhand
     direction 1 -4.48951e-011 5.40064e-026   
     length 0.76799   
     axis -3.44607e-014 90 90   XYZ
    dof rx rz
    limits (-90.0 90.0)
           (-45.0 45.0)
  end
  begin
     id 22 
     name lfingers
     direction 1 -4.48971e-011 1.08013e-025   
     length 0.619174   
     axis -6.89214e-014 90 90   XYZ
    dof rx
    limits (0.0 90.0)
  end
  begin
     id 23
     name lthumb
     direction 0.707107 -6.34931e-011 0.707107   
     length 0.889013   
     axis -90 45 2.85299e-015   XYZ
    dof rx rz
    limits (-45.0 45.0)
           (-45.0 45.0)
  end
  begin
     id 24 
     name rclavicle
     direction -0.961409 0.252588 0.109054   
     length 4.04305  
     axis 0 0 0   XYZ 
    dof ry rz
    limits (-10.0 20.0)
           (-20.0 0.0)
  end
  begin
     id 25 
     name rhumerus
     direction -1 -4.4897e-011 1.33872e-017  
     length 4.70164   
     axis -180 30 90   XYZ
    dof rx ry rz
    limits (-90.0 60.0)
           (-90.0 90.0)
           (-90.0 90.0)
  end
  begin
     id 26 
     name rradius
     direction -1 -4.48954e-011 1.83844e-026   
     length 3.49911   
     axis -180 30 90   XYZ
    dof rx
    limits (-10.0 170.0)
  end
  begin
     id 27 
     name rwrist
     direction -1 -4.49008e-011 2.70032e-026   
     length 1.74955   
     axis -1.81515e-014 -90 -90   XYZ
    dof ry
    limits (-180.0 0.0)
  end
  begin
     id 28
     name rhand
     direction -1 -4.48916e-011 5.40064e-026   
     length 0.739335   
     axis -3.44607e-014 -90 -90   XYZ
    dof rx rz
    limits (-90.0 90.0)
           (-45.0 45.0)
  end
  begin
     id 29
     name rfingers
     direction -1 -4.48987e-011 1.08013e-025   
     length 0.596071   
     axis -6.89214e-014 -90 -90   XYZ
    dof rx
    limits (0.0 90.0)
  end
  begin
     id 30
     name rthumb
     direction -0.707107 -6.34935e-011 0.707107   
     length 0.855843   
     axis -90 -45 -2.85299e-015   XYZ
    dof rx rz
    limits (-45.0 45.0)
           (-45.0 45.0)
  end
:hierarchy
  begin
    root lhipjoint rhipjoint lowerback
    lhipjoint lfemur
    lfemur ltibia
    ltibia lfoot
    lfoot ltoes
    rhipjoint rfemur
    rfemur rtibia
    rtibia rfoot
    rfoot rtoes
    lowerback upperback
    upperback thorax
    thorax lowerneck lclavicle rclavicle
    lowerneck upperneck
    upperneck head
    lclavicle lhumerus
    lhumerus lradius
    lradius lwrist
    lwrist lhand lthumb
    lhand lfingers
    rclavicle rhumerus
    rhumerus rradius
    rradius rwrist
    rwrist rhand rthumb
    rhand rfingers
  end

#!OML:ASF I:\salsa\salsa 7_09\Patient 1\Session 1\dancermale.ASF
:FULLY-SPECIFIED
:DEGREES
183
root 0.190322 17.4952 0.0938919 212.798 86.9369 206.377
lowerback -9.17054 3.22649 3.96712
upperback -1.18692 3.9369 -0.0510513
thorax 4.16965 2.03077 -1.77243
lowerneck -8.25315 -4.67011 0.0195992
upperneck 22.689 -5.4669 -2.39724
head 8.31609 -2.61534 -1.29099
rclavicle -1.33023e-014 -3.47873e-015
rhumerus -5.92064 -2.68612 -88.4122
rradius 60.2957
rwrist -17.3605
rhand -37.6375 1.26652
rfingers 7.12502
rthumb -10.6896 -28.4415
lclavicle -1.33023e-014 -3.47873e-015
lhumerus -11.5452 4.12889 82.894
lradius 87.0658
lwrist 47.4751
lhand -24.1741 42.2994
lfingers 7.12502
lthumb 2.30923 -287.733
rfemur -10.0426 1.33534 22.2521
rtibia 10.6671
rfoot -11.7738 -7.48977
rtoes 5.91712
lfemur -16.2952 -0.717196 -17.7311
ltibia 23.9619
lfoot -16.7696 8.07398
ltoes -12.5855
184
root 0.254906 17.5124 0.0542677 206.664 86.75 199.903
lowerback -9.4919 3.13127 3.71766
upperback -1.30356 3.82957 -0.109236
thorax 4.20756 1.97441 -1.69501
lowerneck -8.05364 -4.86204 -0.300124
upperneck 22.5535 -5.74251 -2.13134
head 8.2504 -2.748 -1.16763
rclavicle 2.6042e-014 -1.49089e-015
rhumerus -6.08843 -2.0192 -88.183
rradius 61.2088
rwrist -18.6725
rhand -38.0271 1.1121
rfingers 7.12502
rthumb -11.0654 -28.5762
lclavicle 2.6042e-014 -1.49089e-015
lhumerus -11.333 3.9041 82.9907
lradius 88.7958
lwrist 46.0117
lhand -24.3378 41.9731
lfingers 7.12502
lthumb 2.15108 -288.058
rfemur -10.3524 1.53789 21.8299
rtibia 11.1393
rfoot -12.1223 -8.13914
rtoes 5.15705
lfemur -15.8381 -0.342797 -18.0947
ltibia 22.6927
lfoot -16.1995 7.3979
ltoes -17.1207
185
root 0.314603 17.5304 0.0118688 201.291 86.5084 194.273
lowerback -9.66527 3.07018 3.56812
upperback -1.37371 3.76336 -0.187218
thorax 4.22242 1.94 -1.6949
lowerneck -7.8834 -5.07467 -0.446573
upperneck 22.2554 -6.02233 -2.14926
head 8.12096 -2.90075 -1.16444
rclavicle 1.71592e-014 7.25564e-015
rhumerus -6.4002 -1.40692 -87.8166
rradius 62.264
rwrist -19.7829
rhand -38.1819 0.717818
rfingers 7.12502
rthumb -11.2147 -28.9624
lclavicle 1.71592e-014 7.25564e-015
lhumerus -11.0643 3.41633 83.1465
lradius 90.6744
lwrist 44.2706
lhand -24.7771 41.3107
lfingers 7.12502
lthumb 1.72686 -288.717
rfemur -10.6404 1.54996 21.3924
rtibia 11.6957
rfoot -12.4736 -8.60475
rtoes 5.01163
lfemur -15.3808 0.0740605 -18.4734
ltibia 21.6355
lfoot -16.4302 6.42967
ltoes -15.0906
186
root 0.374513 17.544 -0.0346143 199.253 86.2231 191.945
lowerback -9.86982 3.022 3.64046
upperback -1.45829 3.6901 -0.239617
thorax 4.25135 1.90575 -1.79209
lowerneck -7.85851 -5.29574 -0.767794
upperneck 22.1702 -6.31173 -2.0132
head 8.10254 -3.0538 -1.09139
rclavicle -2.67525e-015 5.96354e-015
rhumerus -6.78878 -0.916867 -87.5308
rradius 63.2879
rwrist -20.4297
rhand -38.2372 0.194442
rfingers 7.12502
rthumb -11.268 -29.4829
lclavicle -2.67525e-015 5.96354e-015
lhumerus -10.8792 2.7515 83.248
lradius 92.7723
lwrist 42.4859
lhand -25.2316 40.6119
lfingers 7.12502
lthumb 1.28788 -289.412
rfemur -11.0889 1.46172 21.1402
rtibia 12.457
rfoot -12.773 -8.92857
rtoes 5.10222
lfemur -14.997 0.345626 -18.6709
ltibia 20.655
lfoot -16.9656 5.3953
ltoes -8.08747
187
root 0.433712 17.5511 -0.0829877 199.335 85.9258 191.691
lowerback -10.1321 2.95976 3.81946
upperback -1.56392 3.58308 -0.235822
thorax 4.2905 1.85638 -1.89355
lowerneck -7.80036 -5.41079 -0.597966
upperneck 22.0675 -6.45609 -2.23429
head 8.04157 -3.13199 -1.20061
rclavicle -4.03626e-015 4.57205e-015
rhumerus -7.21589 -0.34287 -87.2489
rradius 64.1972
rwrist -20.8872
rhand -38.5021 0.0387267
rfingers 7.12502
rthumb -11.5235 -29.6245
lclavicle -4.03626e-015 4.57205e-015
lhumerus -10.8528 1.89683 83.2907
lradius 95.0114
lwrist 40.5238
lhand -25.7192 39.8474
lfingers 7.12502
lthumb 0.816928 -290.174
rfemur -11.7411 1.35036 21.0486
rtibia 13.4896
rfoot -13.1174 -9.2689
rtoes 4.58943
lfemur -14.6749 0.591593 -18.7512
ltibia 19.6992
lfoot -17.1095 4.55785
ltoes -4.11552
